# xmcd CD database file
#
# Track frame offsets:
#	150
#	15869
#	32628
#	48973
#	63576
#	80702
#	94851
#	110856
#	126258
#	142730
#	158392
#	174692
#
# Disc length: 2501 seconds
#
# Revision: 0
# Processed by: cddbd v1.5.2PL0 Copyright (c) Steve Scherf et al.
# Submitted via: CDex 1.51
#
DISCID=9509c30c
DTITLE=Nildo Leal - Armadilhas
DYEAR=2012
DGENRE=Country
TTITLE0=Lá e Ló
TTITLE1=Hello
TTITLE2=Pistoleira
TTITLE3=Nem Ligo, Nem Ligo
TTITLE4=Vai ou Não Vai?
TTITLE5=Para Com Isso
TTITLE6=Cores do Amor
TTITLE7=Meu Coração Faz Festa
TTITLE8=Conte Até Dez
TTITLE9=Sintomas
TTITLE10=Armadilhas
TTITLE11=Vira Copo
EXTD=YEAR: 2012
EXTT0=
EXTT1=
EXTT2=
EXTT3=
EXTT4=
EXTT5=
EXTT6=
EXTT7=
EXTT8=
EXTT9=
EXTT10=
EXTT11=
PLAYORDER=
